<svg xmlns="http://www.w3.org/2000/svg" xmlns:xlink="http://www.w3.org/1999/xlink" width="1056" zoomAndPan="magnify" viewBox="0 0 792 611.999999" height="816" preserveAspectRatio="xMidYMid meet" version="1.0"><path fill="#ff3131" d="M 365.511719 96.136719 C 364.871094 96.855469 364.269531 97.949219 364.117188 98.589844 C 363.855469 99.871094 363.515625 100.019531 362.835938 99.230469 C 362.195312 98.4375 360.460938 98.136719 359.292969 98.589844 C 356.425781 99.683594 355.9375 104.65625 358.238281 109.332031 C 360.761719 114.460938 366.945312 119.285156 372.222656 120.265625 L 373.542969 120.492188 L 373.542969 110.386719 C 373.542969 100.625 373.503906 100.285156 372.675781 98.550781 C 370.789062 94.707031 367.699219 93.6875 365.511719 96.136719 Z M 365.511719 96.136719 " fill-opacity="1" fill-rule="nonzero"/><path fill="#ff3131" d="M 412.9375 101.605469 C 408.035156 103.226562 405.394531 106.65625 405.09375 111.894531 C 404.753906 117.363281 407.054688 122.339844 412.558594 128.105469 L 415.761719 131.5 L 418.214844 129.878906 C 422.8125 126.863281 425.339844 125.996094 433.859375 124.449219 C 438.871094 123.507812 440.566406 122.488281 441.773438 119.625 C 443.847656 114.6875 440.757812 108.957031 435.101562 107.257812 C 432.199219 106.355469 429.257812 106.46875 427.261719 107.484375 C 425.789062 108.238281 425.488281 108.203125 425.1875 107.257812 C 424.734375 105.902344 422.324219 103.527344 420.398438 102.546875 C 418.402344 101.53125 414.59375 101.039062 412.9375 101.605469 Z M 412.9375 101.605469 " fill-opacity="1" fill-rule="nonzero"/><path fill="#ff3131" d="M 380.328125 106.203125 C 377.765625 107.675781 378.027344 109.03125 381.648438 112.648438 C 383.304688 114.347656 385.226562 116.683594 385.980469 118.039062 C 386.699219 119.359375 387.488281 120.566406 387.679688 120.679688 C 388.09375 120.945312 391.863281 118.644531 393.445312 117.136719 C 395.179688 115.550781 396.425781 113.140625 396.425781 111.292969 C 396.5 106.996094 391.863281 104.320312 388.394531 106.65625 L 387.113281 107.523438 L 386.09375 106.808594 C 384.890625 105.902344 381.457031 105.5625 380.328125 106.203125 Z M 380.328125 106.203125 " fill-opacity="1" fill-rule="nonzero"/><path fill="#ff3131" d="M 315.941406 111.445312 C 311.871094 112.726562 308.515625 115.664062 306.515625 119.699219 C 305.5 121.773438 305.308594 122.601562 305.195312 125.65625 C 304.933594 131.121094 306.480469 135.496094 310.472656 140.921875 C 313.867188 145.558594 318.203125 149.027344 326.496094 153.890625 C 330.304688 156.113281 331.398438 156.605469 331.734375 156.226562 C 331.960938 155.964844 333.128906 153.625 334.300781 150.988281 C 338.371094 141.976562 340.746094 139.414062 350.207031 133.796875 C 357.972656 129.160156 360.160156 126.523438 360.160156 121.773438 C 360.160156 116.34375 355.824219 112.121094 349.113281 110.992188 C 344.703125 110.273438 338.671875 112.007812 334.75 115.175781 C 333.054688 116.53125 332.792969 116.570312 332.300781 115.628906 C 331.621094 114.347656 328.191406 112.160156 325.742188 111.40625 C 322.765625 110.5 318.804688 110.5 315.941406 111.445312 Z M 315.941406 111.445312 " fill-opacity="1" fill-rule="nonzero"/><path fill="#ff3131" d="M 294.339844 121.433594 C 293.660156 122.148438 293.058594 123.207031 292.984375 123.808594 C 292.90625 124.601562 292.644531 124.863281 291.738281 125.015625 C 288.761719 125.503906 287.328125 128.332031 288.683594 131.007812 C 289.476562 132.480469 290.871094 133.308594 293.058594 133.570312 C 295.132812 133.796875 299.84375 133.042969 299.84375 132.441406 C 299.84375 132.214844 299.542969 131.160156 299.203125 130.066406 C 298.675781 128.332031 298.636719 127.691406 299.015625 125.65625 C 299.617188 122.375 299.578125 121.472656 298.789062 120.753906 C 297.582031 119.660156 295.773438 119.925781 294.339844 121.433594 Z M 294.339844 121.433594 " fill-opacity="1" fill-rule="nonzero"/><path fill="#ff3131" d="M 372.9375 125.617188 C 367.171875 127.390625 363.550781 132.703125 363.550781 139.453125 C 363.550781 145.785156 365.210938 149.554688 371.355469 157.285156 C 373.730469 160.261719 375.804688 162.710938 375.953125 162.710938 C 376.105469 162.710938 377.613281 161.089844 379.347656 159.09375 C 382.664062 155.324219 385.078125 153.476562 388.242188 152.308594 C 389.789062 151.78125 391.449219 151.628906 397.292969 151.589844 C 404.945312 151.515625 405.960938 151.328125 407.769531 149.59375 C 408.828125 148.574219 409.921875 145.671875 409.921875 143.863281 C 409.921875 140.695312 407.433594 136.625 404.265625 134.628906 C 401.136719 132.628906 395.898438 132.027344 391.371094 133.082031 L 389.261719 133.570312 L 388.582031 132.140625 C 386.246094 126.898438 378.820312 123.808594 372.9375 125.617188 Z M 372.9375 125.617188 " fill-opacity="1" fill-rule="nonzero"/><path fill="#ff3131" d="M 434.046875 128.144531 C 431.859375 128.632812 429.03125 130.105469 427.9375 131.308594 C 427.5625 131.6875 426.921875 132.855469 426.46875 133.875 C 425.488281 136.136719 425.675781 138.660156 427.035156 141 C 428.203125 142.957031 431.632812 146.277344 434.800781 148.386719 C 441.285156 152.722656 443.921875 155.359375 448.03125 161.46875 C 449.464844 163.617188 450.859375 165.351562 451.085938 165.351562 C 451.3125 165.351562 452.632812 164.746094 453.988281 163.957031 C 462.207031 159.394531 468.164062 153.324219 470.648438 146.917969 C 471.933594 143.710938 471.894531 138.773438 470.539062 135.910156 C 469.179688 132.929688 467.183594 130.894531 464.28125 129.464844 C 459.339844 127.011719 453.648438 127.730469 449.839844 131.308594 C 448.296875 132.78125 448.03125 132.894531 447.578125 132.328125 C 446.675781 131.234375 443.808594 129.464844 441.847656 128.785156 C 439.097656 127.84375 436.457031 127.617188 434.046875 128.144531 Z M 434.046875 128.144531 " fill-opacity="1" fill-rule="nonzero"/><path fill="#ff3131" d="M 284.578125 140.394531 C 283.144531 141.300781 282.617188 141.941406 282.429688 143.070312 C 282.351562 143.710938 281.898438 144.128906 280.730469 144.578125 C 278.65625 145.371094 277.375 146.652344 276.621094 148.613281 C 275.566406 151.402344 276.546875 153.738281 279.222656 154.757812 C 280.808594 155.359375 282.765625 155.246094 286.085938 154.382812 C 287.707031 153.964844 289.703125 153.589844 290.496094 153.589844 C 291.851562 153.589844 291.925781 153.515625 292.566406 151.628906 C 293.472656 149.027344 293.433594 144.84375 292.53125 142.769531 C 292.117188 141.902344 291.285156 140.886719 290.609375 140.46875 C 289.023438 139.492188 286.121094 139.453125 284.578125 140.394531 Z M 284.578125 140.394531 " fill-opacity="1" fill-rule="nonzero"/><path fill="#ff3131" d="M 346.625 143.222656 C 345.609375 143.824219 344.742188 145.21875 344.703125 146.238281 C 344.703125 146.613281 344.96875 147.40625 345.269531 147.972656 L 345.796875 149.066406 L 343.875 149.292969 C 339.351562 149.894531 338.371094 154.34375 342.140625 157.171875 C 344.476562 158.941406 346.023438 159.433594 351.675781 160.300781 C 354.769531 160.75 358.800781 161.582031 360.648438 162.109375 L 363.929688 163.050781 L 363.929688 160.828125 C 363.929688 154.492188 358.992188 146.464844 353.488281 143.863281 C 351.261719 142.808594 347.871094 142.507812 346.625 143.222656 Z M 346.625 143.222656 " fill-opacity="1" fill-rule="nonzero"/><path fill="#ff3131" d="M 481.28125 152.949219 C 480.148438 153.515625 479.472656 154.191406 478.945312 155.324219 C 477.398438 158.488281 478 159.882812 483.128906 164.898438 C 486.898438 168.59375 488.367188 170.703125 489.800781 174.511719 C 490.027344 175.078125 490.441406 175.527344 490.707031 175.527344 C 491.683594 175.527344 497.792969 172.890625 499.414062 171.796875 C 503.109375 169.234375 505.257812 165.804688 505.292969 162.410156 C 505.292969 159.960938 504.652344 158.375 503.03125 156.792969 C 500.429688 154.269531 496.019531 153.703125 493.53125 155.550781 L 492.363281 156.378906 L 491.421875 155.171875 C 489.273438 152.421875 484.449219 151.363281 481.28125 152.949219 Z M 481.28125 152.949219 " fill-opacity="1" fill-rule="nonzero"/><path fill="#ff3131" d="M 257.621094 157.621094 C 256.679688 157.925781 255.210938 158.753906 254.34375 159.507812 C 252.421875 161.167969 250.421875 165.050781 250.160156 167.613281 L 249.96875 169.496094 L 248.238281 169.496094 C 242.734375 169.496094 237.871094 175.304688 238.546875 181.070312 C 239.152344 186.121094 242.734375 189.628906 248.953125 191.210938 C 252.609375 192.152344 259.695312 191.777344 264.21875 190.417969 C 266.066406 189.890625 267.652344 189.363281 267.726562 189.289062 C 267.800781 189.25 267.234375 187.328125 266.445312 185.105469 C 264.671875 179.941406 264.445312 176.585938 265.578125 171.382812 C 266.707031 166.066406 266.671875 162.863281 265.5 160.601562 C 263.992188 157.660156 261.015625 156.53125 257.621094 157.621094 Z M 257.621094 157.621094 " fill-opacity="1" fill-rule="nonzero"/><path fill="#ff3131" d="M 416.96875 161.65625 C 427.5625 172.703125 432.539062 187.140625 432.539062 206.742188 C 432.539062 216.957031 431.519531 226.609375 428.769531 242.820312 C 426.921875 253.675781 422.660156 274.558594 421.492188 278.519531 C 421.457031 278.707031 421.378906 274.183594 421.378906 268.527344 C 421.265625 247.492188 418.476562 235.167969 411.316406 224.046875 C 408.863281 220.3125 408.1875 219.671875 410.144531 223.027344 C 413.160156 228.230469 416.289062 238.296875 417.648438 247.457031 C 419.53125 260.085938 419.195312 278.554688 416.707031 295.785156 C 415.6875 302.832031 407.207031 331.40625 396.875 362.582031 L 392.917969 374.496094 L 389.488281 367.859375 C 387.601562 364.167969 383.382812 356.175781 380.140625 350.066406 C 363.890625 319.609375 358.425781 306.488281 354.882812 289.527344 C 353.035156 280.554688 352.507812 274.105469 352.734375 262.234375 C 352.960938 250.472656 353.601562 244.664062 356.011719 232.828125 C 359.480469 215.675781 366.53125 194.1875 376.40625 170.441406 C 377.613281 167.574219 378.554688 165.125 378.480469 165.085938 C 378.292969 164.898438 369.359375 183.746094 365.589844 192.191406 C 360.535156 203.460938 355.898438 215.261719 352.921875 224.421875 C 351.414062 229.019531 350.058594 232.792969 349.945312 232.828125 C 349.832031 232.828125 349.605469 231.433594 349.453125 229.699219 C 348.851562 222.5 345.835938 210.171875 341.875 199.128906 C 337.125 185.746094 332.828125 178.054688 326.457031 171.421875 C 321.933594 166.785156 317.375 163.765625 311.945312 161.921875 C 308.855469 160.863281 308.742188 161.089844 311.71875 162.257812 C 322.085938 166.367188 329.699219 175.867188 334.527344 190.757812 C 335.996094 195.320312 339.5 209.117188 339.273438 209.34375 C 339.199219 209.417969 338.296875 208.324219 337.277344 206.929688 C 334.863281 203.6875 329.886719 198.902344 325.589844 195.695312 C 321.105469 192.34375 313.566406 188.609375 309.34375 187.667969 C 305.007812 186.6875 302.484375 186.347656 303.238281 186.839844 C 303.539062 187.027344 304.140625 187.214844 304.554688 187.214844 C 305.914062 187.253906 310.398438 189.023438 312.960938 190.53125 C 320.390625 194.941406 326.683594 202.332031 337.390625 219.144531 L 342.480469 227.136719 L 343.007812 231.585938 C 344.402344 243.195312 344.703125 255.371094 343.761719 262.609375 C 342.402344 272.902344 342.402344 287.792969 343.6875 297.214844 C 343.988281 299.136719 344.101562 300.644531 343.949219 300.609375 C 343.835938 300.53125 342.179688 298.800781 340.332031 296.726562 C 334.1875 289.941406 326.042969 282.890625 316.808594 276.332031 C 311.757812 272.75 311.152344 272.183594 310.058594 270.1875 C 307.683594 265.664062 304.820312 256.84375 302.671875 247.191406 C 300.976562 239.425781 300.222656 233.507812 300.222656 227.476562 C 300.222656 224.761719 300.144531 222.613281 300.03125 222.6875 C 299.804688 222.953125 297.769531 235.355469 296.980469 241.5 C 296.300781 246.925781 296.035156 258.351562 296.5625 261.816406 L 296.867188 263.816406 L 295.621094 263.0625 C 293.097656 261.515625 279.828125 255.03125 271.570312 251.300781 C 254.757812 243.722656 247.03125 238.972656 240.621094 232.226562 C 236.738281 228.117188 232.929688 222.121094 231.613281 218.015625 C 231.386719 217.222656 231.085938 216.617188 231.007812 216.730469 C 230.707031 217.035156 232.816406 222.5 234.402344 225.515625 C 238.886719 233.960938 246.691406 241.6875 258.1875 249.113281 C 260.261719 250.433594 265.992188 253.976562 270.929688 256.917969 C 275.867188 259.894531 279.828125 262.382812 279.789062 262.457031 C 279.714844 262.535156 277.789062 261.96875 275.527344 261.253906 C 267.234375 258.613281 257.699219 256.503906 248.574219 255.222656 C 243.335938 254.503906 225.390625 254.089844 221.621094 254.617188 L 218.984375 254.957031 L 223.054688 255.03125 C 239.039062 255.222656 254.910156 259.859375 275.90625 270.527344 C 281.523438 273.390625 291.097656 278.253906 297.207031 281.34375 C 303.3125 284.472656 309.945312 287.679688 311.90625 288.46875 C 315.488281 289.941406 315.488281 289.941406 321.480469 295.972656 C 334.941406 309.503906 346.0625 324.246094 354.050781 339.136719 C 357.972656 346.523438 366.53125 369.820312 365.625 370.761719 C 365.511719 370.839844 364.871094 370.425781 364.191406 369.78125 C 360.914062 366.691406 354.695312 362.695312 348.773438 359.90625 C 343.007812 357.15625 338.183594 355.609375 325.894531 352.480469 C 308.25 348.03125 302.632812 345.28125 294.679688 337.175781 C 290.496094 332.878906 282.351562 322.625 279.976562 318.550781 C 277.261719 313.914062 277.148438 313.800781 278.015625 316.140625 C 281.597656 325.753906 291.8125 339.097656 299.84375 344.753906 C 305.800781 348.9375 310.8125 351.011719 323.328125 354.441406 C 336.824219 358.132812 341.953125 360.09375 349.039062 364.316406 C 355.335938 368.050781 362.722656 374.644531 365.964844 379.394531 C 367.660156 381.847656 367.738281 382.109375 368.265625 386.257812 C 369.359375 395.265625 369.695312 403.257812 369.472656 416.226562 C 369.246094 429.609375 369.019531 432.964844 367.511719 446.007812 C 366.078125 457.996094 363.96875 469.980469 360.914062 483.515625 C 359.519531 489.773438 358.726562 492.5625 358.351562 492.5625 C 357.558594 492.5625 348.285156 493.730469 347.492188 493.921875 C 346.929688 494.070312 346.625 494.371094 346.738281 494.636719 C 346.851562 495.011719 346.664062 495.011719 345.835938 494.710938 C 344.96875 494.371094 344.289062 494.449219 342.667969 494.9375 C 340.179688 495.730469 339.765625 496.21875 340.894531 497.125 C 342.101562 498.105469 350.359375 499.761719 350.359375 499.007812 C 350.359375 498.820312 350.8125 498.894531 351.414062 499.160156 C 354.089844 500.480469 378.214844 501.382812 395.480469 500.855469 C 417.382812 500.140625 429.671875 498.332031 428.242188 495.992188 C 427.714844 495.203125 422.925781 494.070312 415.800781 493.128906 L 413.953125 492.863281 L 414.21875 489.621094 C 415.046875 478.164062 415.273438 471.867188 415.085938 464.480469 C 414.632812 448.042969 412.484375 432.738281 408.410156 416.867188 L 406.902344 411.023438 L 408.410156 405.144531 C 410.183594 397.980469 414.40625 379.960938 416.175781 371.742188 C 416.894531 368.425781 418.328125 363.148438 419.34375 360.058594 C 420.363281 356.929688 422.472656 349.917969 424.054688 344.488281 C 430.011719 323.527344 432.085938 320.589844 449.691406 308.296875 C 467.105469 296.160156 472.835938 290.84375 479.660156 280.515625 C 485.617188 271.46875 489.199219 261.929688 490.402344 251.867188 C 490.628906 249.867188 490.816406 249.414062 486.484375 262.648438 C 483.804688 270.941406 478.867188 279.574219 472.496094 287.1875 C 467.519531 293.144531 460.320312 298.988281 449.539062 305.773438 C 435.101562 314.820312 431.445312 317.988281 426.695312 325.5625 C 425.714844 327.109375 425 327.976562 425.113281 327.449219 C 425.601562 325.261719 428.089844 310.03125 429.296875 302.003906 C 433.105469 276.820312 435.742188 249.832031 436.683594 226.984375 C 437.550781 205.613281 435.289062 190.417969 429.335938 177.867188 C 426.054688 170.96875 419.984375 163.011719 415.007812 159.207031 C 414.179688 158.566406 415.046875 159.660156 416.96875 161.65625 Z M 416.96875 161.65625 " fill-opacity="1" fill-rule="nonzero"/><path fill="#ff3131" d="M 294.605469 163.277344 C 292.417969 163.878906 290.644531 165.011719 290.042969 166.105469 C 289.550781 167.007812 289.550781 169.007812 290.042969 169.308594 C 290.722656 169.722656 290.457031 170.25 289.550781 170.25 C 288.007812 170.25 284.238281 171.382812 282.992188 172.25 C 281.5625 173.230469 280.46875 175.226562 280.769531 176.394531 C 281.222656 178.242188 283.292969 180.390625 285.746094 181.597656 C 287.894531 182.652344 288.535156 182.804688 291.285156 182.804688 C 293.019531 182.804688 296.828125 182.351562 300.03125 181.75 C 304.746094 180.917969 306.402344 180.769531 309.910156 180.917969 L 314.132812 181.070312 L 314.582031 178.960938 C 315.789062 173.191406 313.867188 169.382812 307.949219 165.652344 C 304.027344 163.203125 298.449219 162.183594 294.605469 163.277344 Z M 294.605469 163.277344 " fill-opacity="1" fill-rule="nonzero"/><path fill="#ff3131" d="M 399.554688 167.007812 C 395.933594 168.628906 394.652344 172.703125 396.539062 176.507812 C 397.742188 178.960938 399.554688 180.65625 403.699219 183.257812 L 407.09375 185.367188 L 407.847656 184.464844 C 408.261719 183.972656 409.65625 182.277344 410.976562 180.695312 C 412.257812 179.074219 414.367188 176.960938 415.613281 175.980469 C 419.417969 173.039062 419.984375 170.816406 417.535156 168.367188 C 415.273438 166.066406 411.164062 165.839844 408.789062 167.875 C 407.734375 168.742188 407.582031 168.78125 406.980469 168.253906 C 404.980469 166.519531 401.851562 165.992188 399.554688 167.007812 Z M 399.554688 167.007812 " fill-opacity="1" fill-rule="nonzero"/><path fill="#ff3131" d="M 345.570312 169.082031 C 343.648438 169.988281 342.628906 171.421875 342.628906 173.304688 C 342.628906 175.265625 343.761719 176.359375 347.832031 178.394531 C 351.339844 180.164062 352.734375 181.597656 354.242188 184.953125 C 354.65625 185.894531 355.03125 186.726562 355.109375 186.800781 C 355.144531 186.839844 356.652344 186.046875 358.425781 184.992188 C 364.644531 181.222656 367.058594 176.585938 365.097656 172.25 C 364.304688 170.554688 362.269531 168.96875 360.273438 168.554688 C 358.839844 168.253906 356.425781 168.855469 355.183594 169.835938 C 354.277344 170.589844 354.242188 170.589844 352.054688 169.460938 C 349.527344 168.179688 347.792969 168.101562 345.570312 169.082031 Z M 345.570312 169.082031 " fill-opacity="1" fill-rule="nonzero"/><path fill="#ff3131" d="M 458.925781 175.191406 C 455.949219 175.71875 453.160156 177.113281 450.898438 179.261719 C 444.941406 184.914062 444.1875 193.246094 448.785156 202.40625 C 451.652344 208.136719 455.15625 212.132812 462.320312 217.824219 C 464.054688 219.257812 465.597656 220.390625 465.710938 220.390625 C 465.9375 220.390625 467.296875 219.144531 473.554688 213.1875 C 478.945312 207.988281 483.730469 205.121094 491.308594 202.519531 C 498.132812 200.144531 500.65625 198.335938 501.5625 195.054688 C 502.917969 190.003906 499.074219 183.105469 493.496094 180.582031 C 489.007812 178.542969 482.109375 178.960938 476.945312 181.597656 C 475.210938 182.503906 474.871094 182.503906 474.609375 181.636719 C 474.269531 180.65625 472.195312 178.582031 470.234375 177.339844 C 467.21875 175.414062 462.695312 174.550781 458.925781 175.191406 Z M 458.925781 175.191406 " fill-opacity="1" fill-rule="nonzero"/><path fill="#ff3131" d="M 411.84375 183.933594 C 411.125 184.199219 410.222656 184.839844 409.808594 185.367188 C 409.164062 186.273438 409.128906 186.460938 409.65625 187.441406 C 409.996094 188.042969 411.351562 189.628906 412.746094 190.945312 C 414.105469 192.265625 415.914062 194.527344 416.742188 195.921875 C 417.574219 197.355469 418.476562 198.523438 418.742188 198.523438 C 419.570312 198.523438 423.605469 195.695312 424.960938 194.1875 C 427.261719 191.550781 427.824219 189.0625 426.621094 186.574219 C 426.28125 185.820312 425.488281 184.914062 424.847656 184.539062 C 423.226562 183.558594 420.511719 183.597656 419.195312 184.613281 L 418.136719 185.445312 L 416.78125 184.652344 C 414.859375 183.632812 413.351562 183.40625 411.84375 183.933594 Z M 411.84375 183.933594 " fill-opacity="1" fill-rule="nonzero"/><path fill="#ff3131" d="M 381.496094 187.253906 C 375.425781 188.722656 369.582031 195.394531 367.472656 203.238281 C 366.679688 206.253906 366.378906 214.46875 366.90625 218.578125 C 368.074219 227.210938 370.300781 232.375 377.160156 242.367188 C 377.613281 243.007812 378.855469 241.953125 383.15625 237.277344 C 385.53125 234.714844 388.507812 231.773438 389.789062 230.71875 C 391.976562 228.910156 393.523438 227.929688 402.378906 222.460938 C 407.054688 219.558594 410.5625 216.015625 412.40625 212.246094 C 413.613281 209.832031 413.839844 208.964844 413.992188 206.214844 C 414.140625 203.238281 414.105469 202.898438 412.972656 200.597656 C 411.617188 197.847656 409.808594 196.1875 407.320312 195.320312 C 404.191406 194.265625 400.003906 194.828125 396.5 196.789062 C 395.519531 197.316406 394.613281 197.769531 394.464844 197.769531 C 394.3125 197.769531 394.085938 197.015625 393.972656 196.074219 C 393.484375 192.644531 390.808594 188.988281 387.90625 187.78125 C 386.207031 187.101562 383.191406 186.839844 381.496094 187.253906 Z M 381.496094 187.253906 " fill-opacity="1" fill-rule="nonzero"/><path fill="#ff3131" d="M 516 187.96875 C 515.585938 188.121094 514.792969 188.796875 514.265625 189.402344 C 513.585938 190.191406 513.171875 190.417969 512.796875 190.191406 C 512.042969 189.742188 509.929688 189.777344 508.949219 190.269531 C 507.292969 191.136719 506.425781 192.230469 506.425781 193.433594 C 506.425781 194.941406 507.40625 196 510.15625 197.394531 C 511.402344 197.996094 513.171875 199.164062 514.113281 200.03125 C 516.074219 201.691406 517.320312 202.445312 517.621094 202.144531 C 517.734375 202.03125 518.074219 200.785156 518.335938 199.390625 C 518.640625 197.996094 519.542969 195.507812 520.371094 193.886719 C 521.617188 191.4375 521.769531 190.796875 521.503906 189.816406 C 521.316406 189.175781 520.863281 188.421875 520.484375 188.121094 C 519.730469 187.554688 517.207031 187.480469 516 187.96875 Z M 516 187.96875 " fill-opacity="1" fill-rule="nonzero"/><path fill="#ff3131" d="M 289.289062 189.816406 C 286.460938 190.722656 284.425781 192.492188 283.445312 194.867188 C 282.992188 196 282.691406 196.261719 282.203125 196.074219 C 280.917969 195.546875 277.375 195.433594 275.867188 195.847656 C 271.757812 196.941406 268.894531 200.445312 268.96875 204.328125 C 268.96875 207.042969 269.648438 208.628906 271.308594 209.984375 L 272.777344 211.152344 L 280.542969 211.191406 C 288.910156 211.265625 290.34375 211.53125 293.738281 213.488281 C 295.621094 214.582031 295.359375 214.734375 297.996094 210.777344 C 301.050781 206.214844 302.066406 199.277344 300.296875 195.320312 C 299.242188 193.019531 297.882812 191.550781 295.921875 190.53125 C 294.300781 189.703125 290.796875 189.328125 289.289062 189.816406 Z M 289.289062 189.816406 " fill-opacity="1" fill-rule="nonzero"/><path fill="#ff3131" d="M 243.070312 197.734375 C 242.015625 198.183594 240.660156 199.957031 240.660156 200.863281 C 240.660156 201.238281 240.921875 202.066406 241.226562 202.671875 C 241.753906 203.726562 241.753906 203.800781 241.148438 203.800781 C 239.714844 203.800781 237.492188 204.667969 236.664062 205.5 C 234.855469 207.308594 235.832031 210.324219 238.851562 212.398438 C 241 213.867188 242.167969 214.207031 248.199219 215.074219 C 250.988281 215.488281 254.71875 216.242188 256.453125 216.769531 C 258.226562 217.335938 259.695312 217.75 259.773438 217.75 C 259.847656 217.75 259.886719 216.769531 259.886719 215.5625 C 259.886719 209.417969 255.359375 201.730469 250.082031 198.9375 C 247.671875 197.65625 244.542969 197.09375 243.070312 197.734375 Z M 243.070312 197.734375 " fill-opacity="1" fill-rule="nonzero"/><path fill="#ff3131" d="M 417.761719 207.082031 C 416.707031 208.25 415.953125 210.171875 415.953125 211.757812 C 415.953125 212.359375 416.707031 215.109375 417.648438 217.863281 C 418.589844 220.652344 419.34375 223.628906 419.34375 224.496094 C 419.34375 225.816406 419.496094 226.117188 420.285156 226.421875 C 421.34375 226.835938 423.1875 226.570312 424.621094 225.855469 C 427.183594 224.535156 428.882812 221.105469 428.917969 217.183594 C 428.957031 212.773438 427.296875 210.171875 424.695312 210.699219 C 423.679688 210.890625 423.566406 210.8125 423.113281 209.496094 C 422.019531 206.214844 419.609375 205.121094 417.761719 207.082031 Z M 417.761719 207.082031 " fill-opacity="1" fill-rule="nonzero"/><path fill="#ff3131" d="M 508.5 206.703125 C 505.558594 207.34375 504.164062 208.851562 504.164062 211.417969 C 504.164062 213.1875 504.765625 214.355469 507.441406 217.824219 C 509.742188 220.839844 510.457031 222.652344 511.136719 227.175781 C 511.476562 229.324219 511.777344 231.171875 511.851562 231.246094 C 512.191406 231.546875 519.957031 229.324219 522.21875 228.230469 C 525.761719 226.535156 528.816406 223.40625 529.609375 220.652344 C 530.25 218.429688 530.136719 216.507812 529.195312 214.695312 C 527.648438 211.644531 523.652344 209.757812 520.449219 210.585938 C 519.46875 210.8125 518.488281 211.191406 518.261719 211.339844 C 518.035156 211.566406 517.394531 211.117188 516.488281 210.058594 C 514.53125 207.722656 510.875 206.175781 508.5 206.703125 Z M 508.5 206.703125 " fill-opacity="1" fill-rule="nonzero"/><path fill="#ff3131" d="M 312.019531 216.394531 C 310.136719 217.261719 309.117188 219.824219 310.023438 221.519531 C 310.210938 221.898438 311.644531 222.914062 313.1875 223.78125 C 315.414062 224.988281 316.28125 225.742188 317.375 227.363281 L 318.730469 229.4375 L 320.238281 228.570312 C 321.105469 228.117188 322.613281 227.023438 323.59375 226.117188 C 327.738281 222.460938 327.402344 217.5625 322.914062 216.203125 C 321.558594 215.828125 321.21875 215.863281 319.671875 216.582031 C 318.128906 217.335938 317.902344 217.371094 317.109375 216.84375 C 315.789062 215.976562 313.414062 215.789062 312.019531 216.394531 Z M 312.019531 216.394531 " fill-opacity="1" fill-rule="nonzero"/><path fill="#ff3131" d="M 482.1875 220.539062 C 480.300781 221.21875 479.320312 222.121094 478.492188 223.96875 C 477.660156 225.703125 477.585938 227.289062 478.226562 229.097656 C 479.132812 231.773438 480.753906 233.507812 484.824219 236.222656 C 487.011719 237.652344 489.046875 238.859375 489.273438 238.859375 C 489.535156 238.859375 490.707031 237.617188 491.875 236.070312 C 493.042969 234.5625 495.605469 231.8125 497.566406 229.964844 C 500.996094 226.722656 501.148438 226.496094 501.148438 225.027344 C 501.148438 220.839844 494.851562 218.730469 490.855469 221.59375 C 489.953125 222.234375 489.613281 222.3125 489.121094 221.933594 C 487.878906 221.03125 485.464844 220.011719 484.558594 220.050781 C 484.03125 220.050781 482.976562 220.277344 482.1875 220.539062 Z M 482.1875 220.539062 " fill-opacity="1" fill-rule="nonzero"/><path fill="#ff3131" d="M 275.867188 224.121094 C 274.285156 225.0625 273.152344 226.609375 272.851562 228.15625 C 272.664062 229.285156 272.511719 229.398438 271.609375 229.210938 C 269.800781 228.832031 267.347656 229.777344 265.652344 231.507812 C 264.21875 232.902344 264.03125 233.320312 264.03125 234.789062 C 264.03125 236.824219 265.011719 238.257812 266.785156 238.824219 C 267.425781 239.011719 269.875 239.351562 272.136719 239.578125 C 276.132812 239.953125 276.472656 240.066406 280.695312 242.214844 L 285.140625 244.476562 L 285.78125 242.328125 C 286.273438 240.746094 286.460938 238.898438 286.460938 235.277344 C 286.421875 228.53125 285.558594 226.082031 282.464844 224.195312 C 280.769531 223.140625 277.488281 223.140625 275.867188 224.121094 Z M 275.867188 224.121094 " fill-opacity="1" fill-rule="nonzero"/><path fill="#ff3131" d="M 229.6875 228.796875 C 228.933594 229.246094 227.957031 230.492188 227.351562 231.699219 C 226.449219 233.46875 226.296875 234.074219 226.449219 235.921875 L 226.636719 238.070312 L 225.316406 238.519531 C 220.414062 240.105469 218.152344 247.003906 221.773438 249.152344 C 223.320312 250.054688 225.957031 249.945312 230.746094 248.8125 C 234.890625 247.832031 237.492188 247.757812 244.242188 248.472656 C 247.898438 248.886719 247.933594 247.792969 244.390625 244.96875 C 239.492188 241.007812 239.074219 240.40625 235.15625 231.734375 C 234.0625 229.285156 232.78125 227.929688 231.613281 227.929688 C 231.273438 227.929688 230.40625 228.304688 229.6875 228.796875 Z M 229.6875 228.796875 " fill-opacity="1" fill-rule="nonzero"/><path fill="#ff3131" d="M 509.742188 236.296875 C 508.121094 236.710938 505.519531 238.859375 504.730469 240.40625 C 503.523438 242.707031 504.164062 244.628906 507.894531 249.566406 C 509.328125 251.453125 510.722656 253.488281 511.0625 254.128906 C 512.003906 256.050781 512.53125 259.105469 512.382812 261.742188 L 512.269531 264.304688 L 517.734375 264.304688 C 522.523438 264.304688 523.5 264.191406 525.460938 263.4375 C 528.25 262.382812 531.117188 260.273438 532.511719 258.273438 C 535.566406 253.828125 534.171875 247.757812 529.496094 244.96875 C 527.988281 244.101562 527.273438 243.949219 524.785156 243.910156 L 521.84375 243.910156 L 520.976562 242.027344 C 519.84375 239.613281 517.054688 237.125 514.605469 236.410156 C 512.457031 235.769531 511.742188 235.769531 509.742188 236.296875 Z M 509.742188 236.296875 " fill-opacity="1" fill-rule="nonzero"/><path fill="#ff3131" d="M 450.03125 237.691406 C 446.675781 239.199219 444.714844 241.839844 443.847656 245.949219 C 443.246094 248.625 443.921875 252.355469 445.507812 255.710938 C 446.789062 258.386719 450.179688 262.875 452.820312 265.398438 L 454.363281 266.871094 L 456.625 265.511719 C 461.679688 262.347656 464.84375 261.175781 470.425781 260.347656 C 475.324219 259.632812 477.4375 258.878906 478.945312 257.371094 C 481.09375 255.257812 481.621094 252.582031 480.601562 249.191406 C 479.886719 246.777344 478.339844 244.929688 475.851562 243.574219 C 474.003906 242.554688 473.515625 242.441406 470.234375 242.441406 C 467.558594 242.441406 466.351562 242.59375 465.484375 243.082031 L 464.28125 243.722656 L 463.828125 242.628906 C 463.148438 240.972656 460.925781 238.859375 458.777344 237.878906 C 456.324219 236.75 452.328125 236.636719 450.03125 237.691406 Z M 450.03125 237.691406 " fill-opacity="1" fill-rule="nonzero"/><path fill="#ff3131" d="M 360.726562 241.988281 C 355.671875 244.855469 356.089844 252.46875 361.667969 259.027344 C 362.722656 260.273438 363.742188 261.367188 363.96875 261.441406 C 364.15625 261.480469 365.324219 260.613281 366.492188 259.480469 C 368.679688 257.40625 369.167969 257.179688 374.484375 255.824219 C 378.519531 254.769531 380.441406 252.65625 380.027344 249.679688 C 379.800781 247.90625 377.992188 245.871094 376.105469 245.230469 C 374.824219 244.816406 371.769531 244.890625 370.714844 245.382812 C 370.300781 245.570312 369.921875 245.230469 369.394531 244.25 C 367.886719 241.425781 363.664062 240.332031 360.726562 241.988281 Z M 360.726562 241.988281 " fill-opacity="1" fill-rule="nonzero"/><path fill="#ff3131" d="M 313.152344 242.628906 C 311.378906 243.6875 310.363281 245.984375 310.136719 249.378906 C 309.644531 256.277344 313.492188 263.703125 320.390625 269.394531 C 322.574219 271.203125 330.378906 276.933594 330.640625 276.933594 C 331.058594 276.933594 332.113281 273.804688 333.242188 269.28125 C 334.109375 265.8125 335.167969 262.609375 336.335938 260.160156 C 337.84375 256.878906 338.070312 256.089844 338.03125 254.128906 C 337.917969 246.703125 329.097656 241.3125 324.421875 245.757812 C 323.480469 246.625 323.066406 246.816406 322.914062 246.4375 C 322.539062 245.417969 319.972656 242.894531 318.804688 242.367188 C 317.035156 241.648438 314.546875 241.761719 313.152344 242.628906 Z M 313.152344 242.628906 " fill-opacity="1" fill-rule="nonzero"/><path fill="#ff3131" d="M 394.386719 250.734375 C 393.296875 251.339844 392.203125 253.074219 392.203125 254.128906 C 392.203125 255.445312 393.445312 256.992188 396.046875 258.839844 C 399.589844 261.367188 400.269531 262.15625 402.003906 265.890625 C 402.832031 267.625 403.585938 269.019531 403.738281 269.019531 C 404.417969 269.019531 409.203125 265.890625 410.976562 264.304688 C 415.914062 259.859375 416.140625 253.335938 411.429688 250.921875 C 409.015625 249.679688 405.320312 250.132812 403.964844 251.789062 C 403.511719 252.355469 403.324219 252.320312 401.929688 251.375 C 400.042969 250.132812 396.046875 249.792969 394.386719 250.734375 Z M 394.386719 250.734375 " fill-opacity="1" fill-rule="nonzero"/><path fill="#ff3131" d="M 229.351562 263.816406 C 227.390625 264.382812 225.957031 265.585938 225.164062 267.285156 C 223.921875 270 224.449219 272.9375 226.558594 274.863281 C 227.578125 275.804688 227.578125 275.839844 226.976562 277.234375 C 225.957031 279.609375 225.882812 280.289062 226.335938 282.25 C 227.125 285.53125 229.6875 287.226562 232.214844 286.171875 C 233.535156 285.605469 234.214844 284.8125 237.378906 279.949219 C 239.339844 276.972656 240.167969 276.03125 242.542969 274.332031 C 244.089844 273.242188 245.710938 272.070312 246.125 271.769531 C 246.839844 271.242188 246.839844 271.167969 245.109375 269.621094 C 244.128906 268.714844 242.015625 267.320312 240.394531 266.492188 C 235.570312 264.003906 231.800781 263.101562 229.351562 263.816406 Z M 229.351562 263.816406 " fill-opacity="1" fill-rule="nonzero"/><path fill="#ff3131" d="M 363.25 267.398438 C 358.011719 269.246094 356.277344 276.292969 359.554688 282.703125 C 360.875 285.339844 369.246094 295.820312 372.335938 298.761719 L 373.691406 300.042969 L 374.410156 299.175781 C 374.785156 298.722656 375.503906 297.292969 375.992188 296.007812 C 378.667969 289.109375 381.121094 285.90625 385.980469 283.078125 C 389.601562 280.96875 392.015625 278.632812 392.578125 276.671875 C 393.632812 273.203125 391.902344 269.46875 388.546875 267.851562 C 384.925781 266.078125 379.195312 267.019531 376.558594 269.773438 L 375.503906 270.867188 L 373.84375 269.394531 C 370.980469 266.871094 366.871094 266.117188 363.25 267.398438 Z M 363.25 267.398438 " fill-opacity="1" fill-rule="nonzero"/><path fill="#ff3131" d="M 493.382812 268.039062 C 492.703125 268.339844 492.023438 269.054688 491.722656 269.734375 C 491.234375 270.976562 491.460938 271.65625 494.136719 276.257812 C 494.777344 277.347656 495.265625 278.855469 495.378906 280.175781 L 495.605469 282.289062 L 498.507812 282.136719 C 503.183594 281.871094 505.972656 279.800781 506.3125 276.40625 C 506.613281 273.542969 503.785156 270.941406 501.035156 271.429688 C 499.980469 271.621094 499.753906 271.507812 499.226562 270.414062 C 498.167969 268.300781 495.378906 267.171875 493.382812 268.039062 Z M 493.382812 268.039062 " fill-opacity="1" fill-rule="nonzero"/><path fill="#ff3131" d="M 523.578125 271.996094 C 521.992188 272.710938 519.203125 275.539062 518.261719 277.425781 C 517.695312 278.480469 516.980469 278.519531 516.980469 277.5 C 516.980469 276.59375 515.246094 275.691406 514.417969 276.144531 C 512.269531 277.273438 509.628906 282.210938 508.6875 286.886719 C 508.195312 289.261719 508.347656 290.84375 509.289062 292.578125 C 510.796875 295.445312 511.0625 296.761719 511.289062 302.644531 L 511.515625 308.5625 L 513.925781 307.355469 C 518.789062 304.832031 522.671875 300.34375 526.066406 293.332031 C 528.554688 288.167969 529.570312 284.136719 529.570312 279.386719 C 529.609375 275.011719 528.855469 272.710938 527.121094 271.808594 C 525.761719 271.128906 525.425781 271.128906 523.578125 271.996094 Z M 523.578125 271.996094 " fill-opacity="1" fill-rule="nonzero"/><path fill="#ff3131" d="M 255.210938 273.164062 C 247.257812 275.691406 243.109375 283.269531 245.785156 290.28125 C 245.898438 290.617188 245.371094 290.921875 244.164062 291.222656 C 238.699219 292.617188 233.535156 296.460938 231.386719 300.871094 C 230.367188 302.945312 230.292969 303.472656 230.292969 307.28125 C 230.292969 311.425781 230.292969 311.425781 231.949219 314.820312 C 233.761719 318.476562 236.550781 321.792969 238.773438 322.925781 C 243.5625 325.375 247.480469 324.472656 256.679688 318.890625 C 268.59375 311.617188 273.757812 311.011719 287.515625 315.234375 C 288.082031 315.421875 288.15625 315.046875 288.15625 311.125 C 288.15625 301.664062 286.988281 295.519531 284.046875 289.5625 C 278.546875 278.367188 270.402344 272.375 260.902344 272.449219 C 258.601562 272.449219 256.679688 272.675781 255.210938 273.164062 Z M 255.210938 273.164062 " fill-opacity="1" fill-rule="nonzero"/><path fill="#ff3131" d="M 442.074219 278.855469 C 440.417969 279.347656 439.324219 280.855469 439.324219 282.664062 C 439.324219 283.492188 439.851562 285.453125 440.492188 287.039062 C 441.171875 288.734375 441.886719 291.449219 442.152344 293.519531 C 442.714844 297.367188 443.246094 299.175781 443.808594 299.175781 C 444 299.175781 445.46875 298.234375 447.050781 297.101562 C 450.519531 294.578125 451.160156 294.277344 454.703125 293.144531 C 458.359375 292.011719 459.867188 290.429688 459.566406 287.980469 C 459.226562 284.851562 456.136719 282.738281 452.441406 283.078125 C 450.332031 283.269531 450.21875 283.230469 449.691406 282.210938 C 448.9375 280.78125 447.050781 279.386719 445.167969 278.855469 C 444.335938 278.632812 443.582031 278.441406 443.46875 278.480469 C 443.355469 278.480469 442.753906 278.667969 442.074219 278.855469 Z M 442.074219 278.855469 " fill-opacity="1" fill-rule="nonzero"/><path fill="#ff3131" d="M 396.273438 286.585938 C 395.105469 287.1875 394.085938 288.882812 394.085938 290.128906 C 394.085938 291.410156 395.144531 292.804688 397.628906 294.878906 C 399.628906 296.5 400.644531 297.742188 402.605469 300.949219 C 403.019531 301.589844 403.097656 301.589844 404.492188 300.871094 C 411.089844 297.402344 414.140625 292.238281 411.691406 288.582031 C 409.996094 286.019531 406.640625 285.339844 404.304688 287 C 403.324219 287.714844 403.285156 287.714844 401.816406 286.847656 C 400.082031 285.867188 397.78125 285.753906 396.273438 286.585938 Z M 396.273438 286.585938 " fill-opacity="1" fill-rule="nonzero"/><path fill="#ff3131" d="M 306.816406 292.992188 C 304.78125 294.050781 303.238281 295.820312 303.238281 297.101562 C 303.238281 297.742188 303.425781 298.460938 303.652344 298.6875 C 303.992188 299.023438 303.652344 299.25 302.445312 299.554688 C 296.148438 301.25 294.226562 305.472656 297.960938 309.390625 C 299.242188 310.75 299.503906 310.863281 301.425781 310.863281 C 302.597656 310.863281 305.195312 310.523438 307.195312 310.109375 C 312.132812 309.089844 313.300781 309.128906 315.789062 310.484375 L 317.902344 311.617188 L 318.84375 309.996094 C 321.03125 306.113281 321.066406 303.511719 318.84375 298.988281 C 317.375 296.007812 315.375 293.824219 313.1875 292.917969 C 311.53125 292.203125 308.210938 292.238281 306.816406 292.992188 Z M 306.816406 292.992188 " fill-opacity="1" fill-rule="nonzero"/><path fill="#ff3131" d="M 482.636719 297.667969 C 480.828125 298.609375 479.019531 300.722656 478.566406 302.457031 C 477.925781 304.679688 478.078125 306.867188 479.09375 310.671875 C 480.300781 315.160156 481.015625 319.910156 480.980469 322.546875 C 480.941406 323.679688 480.601562 327.449219 480.226562 330.878906 C 479.847656 334.347656 479.660156 337.4375 479.8125 337.816406 C 480.035156 338.417969 480.789062 338.457031 489.953125 338.269531 C 500.996094 338.078125 502.84375 337.777344 507.480469 335.480469 C 510.835938 333.820312 513.777344 331.03125 515.285156 328.015625 C 516.265625 326.015625 516.378906 325.339844 516.414062 322.359375 C 516.414062 319.382812 516.300781 318.703125 515.359375 316.820312 C 514.039062 314.105469 511.4375 311.539062 508.722656 310.222656 C 507.027344 309.429688 506.046875 309.203125 503.710938 309.203125 L 500.847656 309.164062 L 500.089844 307.65625 C 498.546875 304.492188 496.019531 301.589844 493.082031 299.628906 C 491.496094 298.574219 489.574219 297.515625 488.78125 297.292969 C 486.671875 296.726562 484.144531 296.875 482.636719 297.667969 Z M 482.636719 297.667969 " fill-opacity="1" fill-rule="nonzero"/><path fill="#ff3131" d="M 373.769531 306.414062 C 370.375 308.109375 368.226562 311.238281 367.8125 315.199219 C 367.132812 321.679688 373.617188 330.578125 384.964844 338.71875 C 386.511719 339.8125 387.792969 340.644531 387.90625 340.566406 C 387.980469 340.492188 388.621094 338.34375 389.335938 335.855469 C 391.902344 326.882812 393.445312 324.773438 399.929688 321.039062 C 402.003906 319.835938 404 318.4375 404.417969 317.910156 C 406.148438 315.574219 405.433594 311.050781 402.910156 308.449219 C 401.023438 306.488281 399.554688 305.847656 396.5 305.660156 C 393.070312 305.433594 390.394531 306.074219 388.054688 307.65625 L 386.207031 308.902344 L 385.378906 307.996094 C 383.796875 306.339844 381.683594 305.585938 378.40625 305.585938 C 376.105469 305.585938 375.050781 305.773438 373.769531 306.414062 Z M 373.769531 306.414062 " fill-opacity="1" fill-rule="nonzero"/><path fill="#ff3131" d="M 462.128906 307.167969 C 460.886719 308.109375 460.058594 309.996094 460.058594 311.730469 C 460.058594 312.785156 460.8125 316.367188 461.375 317.910156 C 461.488281 318.289062 462.054688 318.214844 463.527344 317.609375 C 465.222656 316.929688 466.011719 316.855469 468.953125 317.042969 C 472.195312 317.234375 472.421875 317.195312 473.214844 316.367188 C 474.15625 315.386719 474.195312 314.59375 473.441406 313.125 C 472.800781 311.917969 471.78125 311.238281 470.046875 310.863281 C 469.179688 310.710938 468.878906 310.410156 468.804688 309.65625 C 468.726562 309.054688 468.125 308.148438 467.371094 307.46875 C 465.75 306.074219 463.675781 305.925781 462.128906 307.167969 Z M 462.128906 307.167969 " fill-opacity="1" fill-rule="nonzero"/><path fill="#ff3131" d="M 325.441406 314.78125 C 321.105469 315.953125 318.804688 319.910156 320.953125 322.625 L 321.671875 323.566406 L 318.730469 323.828125 C 311.417969 324.433594 306.253906 327.375 305.6875 331.332031 C 305.421875 332.953125 305.875 336.195312 306.554688 338.042969 C 307.121094 339.511719 308.855469 341.359375 310.363281 342.113281 C 312.511719 343.207031 315.488281 343.621094 325.667969 344.222656 C 339.199219 345.015625 344.589844 346.183594 347.757812 348.859375 C 348.625 349.613281 349.414062 350.03125 349.566406 349.839844 C 350.507812 348.824219 351.1875 345.316406 351.035156 342.300781 C 350.886719 339.472656 350.699219 338.796875 349.113281 335.667969 C 348.171875 333.746094 346.363281 330.730469 345.117188 328.957031 C 343.875 327.183594 342.214844 324.808594 341.425781 323.679688 C 339.238281 320.550781 335.84375 317.121094 333.847656 316.027344 C 332.867188 315.5 331.058594 314.894531 329.851562 314.667969 C 327.25 314.179688 327.625 314.179688 325.441406 314.78125 Z M 325.441406 314.78125 " fill-opacity="1" fill-rule="nonzero"/><path fill="#ff3131" d="M 441.171875 318.742188 C 436.683594 320.210938 433.292969 323.90625 431.972656 328.730469 C 431.066406 331.972656 431.332031 340.003906 432.464844 343.660156 C 433.820312 348.105469 435.175781 351.347656 437.363281 355.230469 C 439.777344 359.640625 440.117188 359.792969 443.394531 358.324219 C 445.355469 357.457031 445.730469 357.265625 450.066406 355.042969 C 454.0625 353.007812 456.175781 352.253906 462.695312 350.40625 C 468.953125 348.636719 472.007812 347.164062 473.816406 345.089844 C 477.699219 340.53125 475.023438 334.007812 467.972656 330.730469 C 466.617188 330.085938 465.449219 329.898438 462.128906 329.863281 L 457.984375 329.785156 L 457.757812 328.128906 C 456.738281 321.230469 448.21875 316.402344 441.171875 318.742188 Z M 441.171875 318.742188 " fill-opacity="1" fill-rule="nonzero"/><path fill="#ff3131" d="M 271.644531 324.054688 C 268.480469 324.808594 265.953125 327.75 265.726562 330.992188 C 265.613281 332.539062 265.613281 332.539062 263.878906 332.800781 C 261.503906 333.140625 258.941406 334.6875 257.699219 336.570312 C 256.832031 337.890625 256.679688 338.53125 256.679688 340.644531 C 256.679688 342.792969 256.867188 343.433594 257.8125 344.976562 C 258.640625 346.335938 259.355469 346.976562 260.414062 347.390625 C 261.996094 347.992188 263.089844 347.882812 269.761719 346.261719 L 273.378906 345.394531 L 276.699219 346.222656 C 279.261719 346.863281 280.089844 346.9375 280.316406 346.597656 C 280.46875 346.335938 280.957031 344.753906 281.449219 343.09375 C 282.125 340.757812 282.316406 339.097656 282.316406 335.742188 C 282.316406 331.746094 282.238281 331.21875 281.257812 329.257812 C 279.976562 326.65625 277.753906 324.660156 275.527344 324.09375 C 273.683594 323.640625 273.417969 323.640625 271.644531 324.054688 Z M 271.644531 324.054688 " fill-opacity="1" fill-rule="nonzero"/><path fill="#ff3131" d="M 291.851562 348.183594 C 289.023438 349.050781 287.554688 351.199219 287.855469 354.027344 L 288.082031 355.722656 L 286.3125 355.722656 C 282.203125 355.722656 278.28125 357.871094 276.8125 360.847656 C 274.585938 365.484375 277.753906 371.066406 284.539062 374.382812 C 288.835938 376.492188 292.417969 377.246094 299.277344 377.472656 C 305.6875 377.699219 309.15625 377.285156 314.660156 375.664062 C 316.84375 375.023438 321.972656 372.910156 322.386719 372.496094 C 322.800781 372.082031 320.652344 369.558594 317.675781 366.84375 C 312.8125 362.433594 309.269531 358.8125 307.234375 356.0625 C 302.671875 350.03125 299.355469 347.769531 295.132812 347.84375 C 293.886719 347.84375 292.417969 347.992188 291.851562 348.183594 Z M 291.851562 348.183594 " fill-opacity="1" fill-rule="nonzero"/><path fill="#ff3131" d="M 462.28125 356.0625 C 460.8125 357.53125 460.886719 358.699219 462.546875 362.769531 C 463.789062 365.789062 463.902344 366.316406 463.75 368.839844 L 463.5625 371.628906 L 467.183594 371.480469 C 471.292969 371.289062 473.855469 370.273438 475.664062 368.160156 C 478.90625 364.277344 475.964844 358.664062 471.066406 359.417969 C 470.160156 359.53125 469.859375 359.453125 469.859375 359 C 469.859375 358.210938 468.085938 356.175781 466.804688 355.535156 C 465.109375 354.628906 463.527344 354.816406 462.28125 356.0625 Z M 462.28125 356.0625 " fill-opacity="1" fill-rule="nonzero"/><path fill="#ff3131" d="M 425.789062 356.929688 C 420.136719 359.71875 419.757812 367.9375 424.808594 377.019531 L 426.167969 379.433594 L 429.863281 377.511719 C 433.554688 375.625 433.632812 375.625 438.984375 375.171875 C 446.035156 374.570312 447.050781 374.042969 448.03125 370.6875 C 449.164062 366.691406 444.527344 362.320312 439.4375 362.546875 L 437.363281 362.660156 L 436.875 361.226562 C 435.367188 356.929688 430.011719 354.816406 425.789062 356.929688 Z M 425.789062 356.929688 " fill-opacity="1" fill-rule="nonzero"/><path fill="#ff3131" d="M 334.828125 368.726562 C 330.191406 370.234375 328.644531 374.683594 331.699219 377.738281 L 332.941406 379.019531 L 331.585938 379.886719 C 326.796875 383.015625 327.777344 388.746094 333.28125 389.761719 C 335.429688 390.175781 338.332031 389.347656 343.382812 386.859375 C 348.773438 384.222656 350.058594 383.804688 353.789062 383.429688 C 357.519531 383.050781 357.558594 382.976562 355.9375 379.734375 C 353.636719 375.25 348.925781 371.140625 344.023438 369.292969 C 341.234375 368.238281 337.164062 367.972656 334.828125 368.726562 Z M 334.828125 368.726562 " fill-opacity="1" fill-rule="nonzero"/><path fill="#ff3131" d="M 431.972656 380.300781 C 429.222656 382.488281 429.222656 386.292969 432.011719 391.042969 L 432.914062 392.628906 L 435.140625 391.457031 C 436.875 390.554688 438.003906 390.253906 440.152344 390.140625 C 443.808594 389.914062 444.488281 389.761719 445.355469 388.894531 C 446.484375 387.765625 446.335938 385.765625 445.015625 384.296875 C 444.074219 383.242188 443.660156 383.089844 441.625 382.9375 C 439.585938 382.789062 439.210938 382.636719 438.945312 381.882812 C 438.078125 379.660156 433.972656 378.71875 431.972656 380.300781 Z M 431.972656 380.300781 " fill-opacity="1" fill-rule="nonzero"/><path fill="#ff3131" d="M 421.378906 387.386719 C 420.550781 387.726562 419.910156 389.007812 419.53125 391.15625 C 419.15625 393.230469 418.550781 394.585938 417.195312 396.511719 C 416.515625 397.453125 416.066406 398.359375 416.253906 398.46875 C 417.042969 398.960938 421.152344 399.828125 422.625 399.828125 C 424.660156 399.828125 426.582031 399.035156 427.410156 397.90625 C 428.617188 396.132812 427.863281 393.382812 425.941406 392.664062 C 425.261719 392.402344 425.148438 392.136719 425.300781 391.308594 C 425.527344 390.027344 424.472656 387.992188 423.265625 387.425781 C 422.738281 387.199219 422.285156 387.011719 422.246094 387.046875 C 422.210938 387.046875 421.832031 387.199219 421.378906 387.386719 Z M 421.378906 387.386719 " fill-opacity="1" fill-rule="nonzero"/><path fill="#ff3131" d="M 347.53125 390.742188 C 342.292969 392.023438 341.800781 396.699219 346.851562 397.527344 C 348.058594 397.714844 348.285156 397.90625 348.324219 398.695312 C 348.359375 400.46875 348.472656 400.621094 350.246094 401.410156 C 353.449219 402.804688 357.746094 401.75 360.839844 398.734375 C 362.496094 397.113281 362.949219 395.53125 362.570312 393.042969 L 362.308594 391.496094 L 360.386719 391.722656 C 359.179688 391.875 356.765625 391.683594 353.75 391.195312 C 351.148438 390.742188 348.964844 390.402344 348.851562 390.441406 C 348.738281 390.480469 348.171875 390.59375 347.53125 390.742188 Z M 347.53125 390.742188 " fill-opacity="1" fill-rule="nonzero"/></svg>